<?xml version="1.0" encoding="UTF-8" standalone="no"?>
<!-- Created with Inkscape (http://www.inkscape.org/) -->

<svg
   width="1254pt"
   height="1254pt"
   viewBox="0 0 442.38332 442.38333"
   version="1.1"
   id="svg5"
   xml:space="preserve"
   inkscape:version="1.2.2 (b0a84865, 2022-12-01)"
   sodipodi:docname="splash_z.svg"
   xmlns:inkscape="http://www.inkscape.org/namespaces/inkscape"
   xmlns:sodipodi="http://sodipodi.sourceforge.net/DTD/sodipodi-0.dtd"
   xmlns="http://www.w3.org/2000/svg"
   xmlns:svg="http://www.w3.org/2000/svg"><sodipodi:namedview
     id="namedview7"
     pagecolor="#ffffff"
     bordercolor="#000000"
     borderopacity="0.25"
     inkscape:showpageshadow="2"
     inkscape:pageopacity="0.0"
     inkscape:pagecheckerboard="0"
     inkscape:deskcolor="#d1d1d1"
     inkscape:document-units="mm"
     showgrid="false"
     inkscape:zoom="0.7398716"
     inkscape:cx="824.46738"
     inkscape:cy="756.88808"
     inkscape:window-width="3200"
     inkscape:window-height="1742"
     inkscape:window-x="0"
     inkscape:window-y="30"
     inkscape:window-maximized="1"
     inkscape:current-layer="layer1" /><defs
     id="defs2" /><g
     inkscape:label="Layer 1"
     inkscape:groupmode="layer"
     id="layer1"><path
       style="display:inline;fill:#000000;stroke-width:0.352778"
       d="m 161.21944,313.62655 c -8.33477,-1.08751 -14.17933,-5.47015 -16.80225,-12.59947 -0.90626,-2.46329 -1.01302,-3.19962 -1.01302,-6.9868 0,-4.58163 0.36814,-6.16399 2.3802,-10.23056 1.22992,-2.48578 2.94114,-4.82947 10.81823,-14.81667 6.10027,-7.7344 35.79984,-44.85227 45.16356,-56.44444 2.97785,-3.68653 7.8921,-9.77315 10.92058,-13.52584 3.02847,-3.75269 6.37944,-7.89319 7.44659,-9.20112 17.79685,-21.81228 22.49666,-27.70634 23.04863,-28.90544 0.86465,-1.87834 2.29513,-1.81292 -39.7848,-1.81956 -32.07735,-0.005 -39.23492,-0.0927 -41.17691,-0.50432 -8.39902,-1.78015 -13.68358,-8.46619 -13.69662,-17.329 -0.007,-4.75926 1.77974,-9.22659 4.9978,-12.49581 1.96245,-1.99365 3.8386,-3.17881 6.84426,-4.32351 l 2.08848,-0.7954 60.14861,-0.0949 c 53.00569,-0.0837 60.46281,-0.0305 62.79444,0.44786 10.5637,2.16717 16.97461,11.08805 15.5333,21.61481 -0.92265,6.73862 -2.13626,8.84377 -12.1474,21.07116 -2.70062,3.29847 -8.64672,10.68035 -13.21356,16.40417 -13.70425,17.17615 -24.4119,30.63476 -27.64594,34.74861 -4.16197,5.29421 -20.61652,26.1143 -25.09269,31.75 -10.77457,13.56567 -18.92537,24.26611 -18.92537,24.84537 0,0.36054 0.2511,0.75189 0.55802,0.86966 0.30691,0.11778 17.57097,0.21533 38.36458,0.2168 24.00526,0.002 38.61616,0.13405 40.02434,0.36256 6.50201,1.05513 11.20666,4.66463 13.64456,10.46836 0.86634,2.06242 1.02862,2.98592 1.16687,6.64045 0.12132,3.20688 0.0193,4.79655 -0.41738,6.50091 -1.93015,7.53408 -7.60286,12.98937 -14.67155,14.10923 -2.63232,0.41702 -118.16787,0.43885 -121.35556,0.0229 z"
       id="path1615" /></g></svg>
